<?xml version="1.0" encoding="utf-8"?>
<!-- Generator: Adobe Illustrator 19.2.0, SVG Export Plug-In . SVG Version: 6.00 Build 0)  -->
<svg xmlns="http://www.w3.org/2000/svg" xmlns:xlink="http://www.w3.org/1999/xlink" viewBox="0 0 294.8 105.7">
<style type="text/css">
	.st0{fill: #fff;}
	.st1{fill: #1498E2;}
</style>

<path class="st1" d="M1.3,0h6.6c0,0,2.4,8.6,10.1,14.6c0,0,6.1,5,17.1,12.8c0,0,16,12.3,19.1,22.4c0,0,2.7,10.5-6.4,29.6h-4
	c0,0,7.1-12.6,5.9-22.4c0,0-0.1-9.1-13.8-19.8c0,0-10.6-7.4-18.8-8.2l18.6,57.5c0,0,5,15.3-11.6,18.8c0,0-20.2,4.4-24-11.6
	c0,0-2.1-10.8,10.7-14.7c0,0,5.6-1.8,15.5-0.4L1.3,0z"/>

</svg>
